<svg xmlns="http://www.w3.org/2000/svg" width="144.378" height="49.981" viewBox="0 0 144.378 49.981">
  <g id="Group_9491" data-name="Group 9491" transform="translate(-92.35 -184.17)">
    <g id="Group_1" data-name="Group 1" transform="translate(92.35 184.17)">
      <path id="Path_1" data-name="Path 1" d="M157.834,260.03a3.264,3.264,0,1,0,3.264,3.264A3.264,3.264,0,0,0,157.834,260.03Zm0,4.465a1.2,1.2,0,1,1,1.2-1.2A1.2,1.2,0,0,1,157.834,264.5Z" transform="translate(-141.077 -243.319)" fill="#18171c"/>
      <path id="Path_2" data-name="Path 2" d="M120.334,260.03a3.264,3.264,0,1,0,3.264,3.264A3.264,3.264,0,0,0,120.334,260.03Zm0,4.465a1.2,1.2,0,1,1,1.2-1.2A1.2,1.2,0,0,1,120.334,264.5Z" transform="translate(-111.709 -243.319)" fill="#18171c"/>
      <path id="Path_3" data-name="Path 3" d="M117.621,209.794v-10.9a4.766,4.766,0,0,0-4.734-4.8H105.9v-3.972a3,3,0,1,0-1.713,0v3.972H97.871a5.546,5.546,0,0,0-5.508,5.584V210.02l-.013,0v18.552a5.546,5.546,0,0,0,5.508,5.584h15.018a4.766,4.766,0,0,0,4.734-4.8v-6.481a4.8,4.8,0,0,0-3.084-4.5l-5.408-2.038,5.419-2.042A4.8,4.8,0,0,0,117.621,209.794Zm-4.073,1.8-7.941,2.994a1.576,1.576,0,0,1-1.117,0l-8.054-3.036a1.927,1.927,0,0,1-1.238-1.8V199.675a2.692,2.692,0,0,1,2.674-2.711h15.015a1.912,1.912,0,0,1,1.9,1.926v10.9A1.927,1.927,0,0,1,113.548,211.6Z" transform="translate(-92.35 -184.17)" fill="#e50047"/>
    </g>
    <g id="Group_2" data-name="Group 2" transform="translate(132.596 202.919)">
      <path id="Path_4" data-name="Path 4" d="M410.492,268.5h-1.663a1.137,1.137,0,0,0-1.136,1.136v5.369h-4.886a8.006,8.006,0,0,0,0,16.013h4.222a4.6,4.6,0,0,0,4.6-4.6V269.636A1.138,1.138,0,0,0,410.492,268.5Zm-2.8,10.442V285.5a1.583,1.583,0,0,1-1.581,1.581h-3.3a4.07,4.07,0,1,1,0-8.141h4.886Z" transform="translate(-367.504 -268.5)" fill="#18171c"/>
      <path id="Path_5" data-name="Path 5" d="M501.1,268.5h-1.663a1.138,1.138,0,0,0-1.136,1.136v5.369h-4.886a8.006,8.006,0,0,0,0,16.013h4.222a4.6,4.6,0,0,0,4.6-4.6V269.636A1.138,1.138,0,0,0,501.1,268.5Zm-2.8,10.442V285.5a1.583,1.583,0,0,1-1.581,1.581h-3.3a4.07,4.07,0,1,1,0-8.141H498.3Z" transform="translate(-438.464 -268.5)" fill="#18171c"/>
      <path id="Path_6" data-name="Path 6" d="M593.749,298.49h-1.663a1.138,1.138,0,0,0-1.136,1.136v9.36a1.583,1.583,0,0,1-1.581,1.581h-5.8a1.583,1.583,0,0,1-1.581-1.581v-9.36a1.137,1.137,0,0,0-1.136-1.136h-1.664a1.137,1.137,0,0,0-1.136,1.136v9.524a5.357,5.357,0,0,0,5.35,5.35h6.133a5.356,5.356,0,0,0,5.35-5.35v-9.524A1.136,1.136,0,0,0,593.749,298.49Z" transform="translate(-511.014 -291.986)" fill="#18171c"/>
      <path id="Path_7" data-name="Path 7" d="M366.47,298.5h-1.663a1.137,1.137,0,0,0-1.136,1.136v13.738a1.137,1.137,0,0,0,1.136,1.136h1.663a1.137,1.137,0,0,0,1.136-1.136V299.636A1.137,1.137,0,0,0,366.47,298.5Z" transform="translate(-343.125 -291.994)" fill="#18171c"/>
      <path id="Path_8" data-name="Path 8" d="M685.515,298.49a1.137,1.137,0,0,0-1.136,1.136v9.36a1.583,1.583,0,0,1-1.581,1.581H677a1.583,1.583,0,0,1-1.581-1.581v-9.36a1.137,1.137,0,0,0-1.136-1.136h-1.663a1.137,1.137,0,0,0-1.136,1.136v9.524a5.357,5.357,0,0,0,5.35,5.35h6.135a5.357,5.357,0,0,0,5.35-5.35V301.29A2.8,2.8,0,0,0,685.515,298.49Z" transform="translate(-584.183 -291.986)" fill="#18171c"/>
      <path id="Path_9" data-name="Path 9" d="M284.7,268.5h-1.663a1.138,1.138,0,0,0-1.136,1.136v4.858a4.075,4.075,0,0,1-4.07,4.07h-4.964v-8.928a1.137,1.137,0,0,0-1.136-1.136,2.8,2.8,0,0,0-2.8,2.8v16.919a2.8,2.8,0,0,0,2.8,2.8,1.137,1.137,0,0,0,1.136-1.136V282.5h4.964a4.075,4.075,0,0,1,4.07,4.07v3.312a1.138,1.138,0,0,0,1.136,1.136H284.7a1.138,1.138,0,0,0,1.136-1.136v-3.312a7.971,7.971,0,0,0-2.759-6.037,7.981,7.981,0,0,0,2.759-6.037v-4.858A1.135,1.135,0,0,0,284.7,268.5Z" transform="translate(-268.93 -268.5)" fill="#18171c"/>
    </g>
  </g>
</svg>
