<svg xmlns="http://www.w3.org/2000/svg" width="40.103" height="40.103" viewBox="0 0 40.103 40.103">
  <g id="Group_9621" data-name="Group 9621" transform="translate(-40.875 -225.521)">
    <path id="Path_2073" data-name="Path 2073" d="M82.975,416.676a1.633,1.633,0,0,1-.4-.052,10.3,10.3,0,0,1-5.538-3.69,9.666,9.666,0,0,1-1.918-7.435,9.9,9.9,0,0,1,4.1-6.564l6.994-4.979a10.657,10.657,0,0,1,14.523,2.1,9.7,9.7,0,0,1,1.916,7.441,9.9,9.9,0,0,1-4.1,6.565l-2.932,2.088a1.528,1.528,0,0,1-2.08-.3,1.4,1.4,0,0,1,.313-2.005l2.932-2.091a7.043,7.043,0,0,0,2.924-4.677,6.917,6.917,0,0,0-1.367-5.306,7.6,7.6,0,0,0-10.362-1.5l-6.994,4.979a7.07,7.07,0,0,0-2.922,4.68,6.893,6.893,0,0,0,1.367,5.306,7.361,7.361,0,0,0,3.946,2.628,1.43,1.43,0,0,1,1.03,1.771,1.478,1.478,0,0,1-1.43,1.046Z" transform="translate(-21.786 -166.479)" fill="#657786"/>
    <path id="Path_2074" data-name="Path 2074" d="M81.408,421.679a10.523,10.523,0,0,1-8.373-4.057,9.682,9.682,0,0,1-1.918-7.438,9.9,9.9,0,0,1,4.1-6.565l2.929-2.089a1.53,1.53,0,0,1,2.081.3,1.4,1.4,0,0,1-.311,2.005l-2.933,2.091a7.056,7.056,0,0,0-2.923,4.677,6.906,6.906,0,0,0,1.368,5.306,7.61,7.61,0,0,0,10.364,1.5l6.992-4.982a6.979,6.979,0,0,0,1.555-9.986,7.346,7.346,0,0,0-3.947-2.628,1.426,1.426,0,0,1-1.03-1.768,1.507,1.507,0,0,1,1.835-1,10.308,10.308,0,0,1,5.537,3.689,9.783,9.783,0,0,1-2.18,14l-7,4.982a10.544,10.544,0,0,1-6.153,1.959Z" transform="translate(-30.125 -156.056)" fill="#657786"/>
  </g>
</svg>
