<svg id="_24x24_social_Linkedin" data-name="24x24/social/Linkedin" xmlns="http://www.w3.org/2000/svg" width="24" height="24" viewBox="0 0 24 24">
  <path id="icon" d="M10.558,18.023H6.519c.017-3.356.025-5.954.025-7.943s0-3.234-.013-3.634l-.013-.589h4.039V7.585a5.3,5.3,0,0,1,.479-.649,5.226,5.226,0,0,1,.694-.638A3.2,3.2,0,0,1,12.8,5.764a4.883,4.883,0,0,1,1.4-.19,4.381,4.381,0,0,1,3.377,1.393,5.871,5.871,0,0,1,1.276,4.082v6.972H14.818V11.516a3.569,3.569,0,0,0-.5-2.02,1.752,1.752,0,0,0-1.552-.73,2,2,0,0,0-1.3.423,2.631,2.631,0,0,0-.779,1.049,2.985,2.985,0,0,0-.135.995v6.79Zm-6.273,0H.233V5.856H4.285V18.021ZM2.259,4.2H2.235A2.228,2.228,0,0,1,.614,3.6,2.021,2.021,0,0,1,0,2.1,1.984,1.984,0,0,1,.633.6,2.319,2.319,0,0,1,2.283,0,2.253,2.253,0,0,1,3.916.6a2.055,2.055,0,0,1,.626,1.5,1.951,1.951,0,0,1-.62,1.5A2.324,2.324,0,0,1,2.259,4.2Z" transform="translate(2.571 2.96)" fill="#1c2642"/>
</svg>
