<svg id="_24x24_social_Twitter" data-name="24x24/social/Twitter" xmlns="http://www.w3.org/2000/svg" width="24" height="24" viewBox="0 0 24 24">
  <path id="icon" d="M19.348,1.866a8.309,8.309,0,0,1-1.989,2.05q.012.172.012.516a11.265,11.265,0,0,1-.467,3.186,11.513,11.513,0,0,1-1.418,3.051,11.993,11.993,0,0,1-2.265,2.584,10.085,10.085,0,0,1-3.167,1.792,11.592,11.592,0,0,1-3.965.669A11.012,11.012,0,0,1,0,13.934a8.487,8.487,0,0,0,.958.049,7.764,7.764,0,0,0,4.923-1.694,3.974,3.974,0,0,1-3.708-2.75,5.024,5.024,0,0,0,.749.061,4.1,4.1,0,0,0,1.044-.135A3.9,3.9,0,0,1,1.688,8.1a3.831,3.831,0,0,1-.9-2.523V5.525a3.934,3.934,0,0,0,1.792.5A3.961,3.961,0,0,1,1.289,4.616,3.864,3.864,0,0,1,.81,2.725a3.885,3.885,0,0,1,.54-2A11.241,11.241,0,0,0,4.966,3.652,11.049,11.049,0,0,0,9.527,4.874a4.4,4.4,0,0,1-.1-.908,3.822,3.822,0,0,1,1.16-2.805,3.975,3.975,0,0,1,5.7.092A7.775,7.775,0,0,0,18.808.295,3.85,3.85,0,0,1,17.065,2.48,7.9,7.9,0,0,0,19.348,1.866Z" transform="translate(2.326 4.286)" fill="#1c2642"/>
</svg>
