<svg id="Group_321" data-name="Group 321" xmlns="http://www.w3.org/2000/svg" xmlns:xlink="http://www.w3.org/1999/xlink" width="14.74" height="9.38" viewBox="0 0 14.74 9.38">
  <defs>
    <clipPath id="clip-path">
      <path id="icon" d="M7.37,9.38a.664.664,0,0,1-.473-.2L4.886,7.174a.67.67,0,1,1,.948-.948l.866.867V4.018a.67.67,0,0,1,1.34,0V7.093l.867-.867a.67.67,0,1,1,.948.948L7.844,9.184A.664.664,0,0,1,7.37,9.38Zm4.355,0a.67.67,0,1,1,0-1.34,1.675,1.675,0,1,0-.276-3.327.677.677,0,0,1-.11.009.668.668,0,0,1-.662-.564A3.35,3.35,0,0,0,4.465,3.021a.674.674,0,0,1-.582.335H3.84c-.052,0-.1-.005-.156-.005a2.345,2.345,0,0,0,0,4.69.67.67,0,1,1,0,1.34,3.685,3.685,0,0,1-.167-7.366,4.692,4.692,0,0,1,8.349,1.339,3.015,3.015,0,0,1-.142,6.026Z" fill="#1c2642"/>
    </clipPath>
  </defs>
  <path id="icon-2" data-name="icon" d="M7.37,9.38a.664.664,0,0,1-.473-.2L4.886,7.174a.67.67,0,1,1,.948-.948l.866.867V4.018a.67.67,0,0,1,1.34,0V7.093l.867-.867a.67.67,0,1,1,.948.948L7.844,9.184A.664.664,0,0,1,7.37,9.38Zm4.355,0a.67.67,0,1,1,0-1.34,1.675,1.675,0,1,0-.276-3.327.677.677,0,0,1-.11.009.668.668,0,0,1-.662-.564A3.35,3.35,0,0,0,4.465,3.021a.674.674,0,0,1-.582.335H3.84c-.052,0-.1-.005-.156-.005a2.345,2.345,0,0,0,0,4.69.67.67,0,1,1,0,1.34,3.685,3.685,0,0,1-.167-7.366,4.692,4.692,0,0,1,8.349,1.339,3.015,3.015,0,0,1-.142,6.026Z" fill="#1c2642"/>
</svg>
