<svg id="_24x24_social_Instagram" data-name="24x24/social/Instagram" xmlns="http://www.w3.org/2000/svg" width="24" height="24" viewBox="0 0 24 24">
  <path id="icon" d="M9.428,18.857c-1.9,0-3.175-.02-3.892-.061a5.784,5.784,0,0,1-3.953-1.522A5.786,5.786,0,0,1,.061,13.32C.021,12.6,0,11.289,0,9.428s.021-3.17.061-3.892A5.781,5.781,0,0,1,1.584,1.584,5.781,5.781,0,0,1,5.537.061C6.259.021,7.568,0,9.428,0S12.6.021,13.32.061a5.786,5.786,0,0,1,3.954,1.523A5.784,5.784,0,0,1,18.8,5.537c.041.716.061,1.989.061,3.892s-.02,3.175-.061,3.892a5.789,5.789,0,0,1-1.522,3.954A5.789,5.789,0,0,1,13.32,18.8C12.6,18.837,11.331,18.857,9.428,18.857Zm0-1.694.94.006.75,0q.324,0,.545,0c.316,0,.714-.017,1.184-.037a9.681,9.681,0,0,0,1.265-.123,4.94,4.94,0,0,0,.878-.227,3.214,3.214,0,0,0,1.792-1.792,4.94,4.94,0,0,0,.227-.878,9.681,9.681,0,0,0,.123-1.265c.02-.47.032-.869.037-1.184,0-.294,0-.729,0-1.3s-.006-.884-.006-.94,0-.359.006-.939,0-1,0-1.3c0-.316-.017-.715-.037-1.185a9.706,9.706,0,0,0-.123-1.265,4.947,4.947,0,0,0-.227-.878A3.212,3.212,0,0,0,14.99,2.075a4.94,4.94,0,0,0-.878-.227,9.678,9.678,0,0,0-1.265-.122c-.51-.021-.9-.033-1.184-.037l-.369,0c-.252,0-.566,0-.932.008H9.428L8.49,1.688l-.75,0c-.215,0-.4,0-.545,0-.288,0-.675.016-1.185.037a9.7,9.7,0,0,0-1.265.122,4.947,4.947,0,0,0-.878.227A3.21,3.21,0,0,0,2.075,3.867a4.946,4.946,0,0,0-.227.878,9.7,9.7,0,0,0-.122,1.265c-.021.51-.033.9-.037,1.185s0,.729,0,1.3.005.882.005.939,0,.371-.005.94,0,1,0,1.3.016.675.037,1.184a9.678,9.678,0,0,0,.122,1.265,4.94,4.94,0,0,0,.227.878,3.212,3.212,0,0,0,1.793,1.792,4.947,4.947,0,0,0,.878.227,9.706,9.706,0,0,0,1.265.123c.47.02.869.032,1.185.037q.221,0,.545,0l.75,0Zm0-2.9A4.82,4.82,0,0,1,4.592,9.428,4.818,4.818,0,0,1,9.428,4.592a4.82,4.82,0,0,1,4.837,4.837,4.821,4.821,0,0,1-4.837,4.837Zm0-7.98A3.143,3.143,0,0,0,6.286,9.428a3.143,3.143,0,0,0,3.143,3.143,3.143,3.143,0,0,0,3.143-3.143A3.143,3.143,0,0,0,9.428,6.286Zm5.034-.761a1.131,1.131,0,0,1-1.13-1.129,1.13,1.13,0,1,1,1.928.8A1.093,1.093,0,0,1,14.462,5.524Z" transform="translate(2.571 2.714)" fill="#1c2642"/>
</svg>
